<svg xmlns="http://www.w3.org/2000/svg" viewBox="0 0 1050 360" font-family="Helvetica,Arial,sans-serif">
<text x="525.0" y="34.0" font-size="24" fill="#1a4a7a" text-anchor="middle" font-weight="bold">Five risk shapes: how fraud log-odds bends with the feature value</text>
<text x="525.0" y="62.0" font-size="16" fill="#444" text-anchor="middle" font-weight="normal">s = standardized log value (x-axis) · risk = latent log-odds (y-axis) · sharp = a localized band</text>
<rect x="16.0" y="96.0" width="190.8" height="176.0" rx="6" fill="#fbfcfd" stroke="#e5e7eb" stroke-width="1.2"/>
<line x1="28.0" y1="188.0" x2="194.8" y2="188.0" stroke="#e5e7eb" stroke-width="1"/>
<polyline points="28.0,256.0 29.4,254.9 30.8,253.7 32.2,252.6 33.6,251.5 35.0,250.3 36.3,249.2 37.7,248.1 39.1,246.9 40.5,245.8 41.9,244.7 43.3,243.5 44.7,242.4 46.1,241.3 47.5,240.1 48.9,239.0 50.2,237.9 51.6,236.7 53.0,235.6 54.4,234.5 55.8,233.3 57.2,232.2 58.6,231.1 60.0,229.9 61.4,228.8 62.8,227.7 64.1,226.5 65.5,225.4 66.9,224.3 68.3,223.1 69.7,222.0 71.1,220.9 72.5,219.7 73.9,218.6 75.3,217.5 76.7,216.3 78.0,215.2 79.4,214.1 80.8,212.9 82.2,211.8 83.6,210.7 85.0,209.5 86.4,208.4 87.8,207.3 89.2,206.1 90.6,205.0 91.9,203.9 93.3,202.7 94.7,201.6 96.1,200.5 97.5,199.3 98.9,198.2 100.3,197.1 101.7,195.9 103.1,194.8 104.5,193.7 105.8,192.5 107.2,191.4 108.6,190.3 110.0,189.1 111.4,188.0 112.8,186.9 114.2,185.7 115.6,184.6 117.0,183.5 118.4,182.3 119.7,181.2 121.1,180.1 122.5,178.9 123.9,177.8 125.3,176.7 126.7,175.5 128.1,174.4 129.5,173.3 130.9,172.1 132.2,171.0 133.6,169.9 135.0,168.7 136.4,167.6 137.8,166.5 139.2,165.3 140.6,164.2 142.0,163.1 143.4,161.9 144.8,160.8 146.1,159.7 147.5,158.5 148.9,157.4 150.3,156.3 151.7,155.1 153.1,154.0 154.5,152.9 155.9,151.7 157.3,150.6 158.7,149.5 160.1,148.3 161.4,147.2 162.8,146.1 164.2,144.9 165.6,143.8 167.0,142.7 168.4,141.5 169.8,140.4 171.2,139.3 172.6,138.1 174.0,137.0 175.3,135.9 176.7,134.7 178.1,133.6 179.5,132.5 180.9,131.3 182.3,130.2 183.7,129.1 185.1,127.9 186.5,126.8 187.9,125.7 189.2,124.5 190.6,123.4 192.0,122.3 193.4,121.1 194.8,120.0" fill="none" stroke="#1a4a7a" stroke-width="3" stroke-linejoin="round" stroke-linecap="round"/>
<text x="111.4" y="86.0" font-size="15" fill="#222" text-anchor="middle" font-weight="bold">log-linear</text>
<text x="111.4" y="296.0" font-size="15" fill="#6b7280" text-anchor="middle" font-weight="normal" font-family="SFMono-Regular,Menlo,monospace">f(s) = s</text>
<text x="111.4" y="318.0" font-size="14" fill="#1a4a7a" text-anchor="middle" font-weight="bold">→ log wins</text>
<rect x="222.8" y="96.0" width="190.8" height="176.0" rx="6" fill="#fbfcfd" stroke="#e5e7eb" stroke-width="1.2"/>
<line x1="234.8" y1="188.0" x2="401.6" y2="188.0" stroke="#e5e7eb" stroke-width="1"/>
<polyline points="234.8,256.0 236.2,252.7 237.6,249.4 239.0,246.3 240.4,243.3 241.8,240.4 243.1,237.6 244.5,234.9 245.9,232.3 247.3,229.8 248.7,227.4 250.1,225.0 251.5,222.8 252.9,220.7 254.3,218.6 255.7,216.7 257.0,214.8 258.4,213.0 259.8,211.3 261.2,209.7 262.6,208.1 264.0,206.7 265.4,205.3 266.8,203.9 268.2,202.7 269.6,201.5 270.9,200.4 272.3,199.3 273.7,198.3 275.1,197.4 276.5,196.5 277.9,195.7 279.3,194.9 280.7,194.2 282.1,193.5 283.4,192.9 284.8,192.4 286.2,191.8 287.6,191.4 289.0,190.9 290.4,190.5 291.8,190.2 293.2,189.8 294.6,189.5 296.0,189.3 297.4,189.1 298.7,188.9 300.1,188.7 301.5,188.5 302.9,188.4 304.3,188.3 305.7,188.2 307.1,188.2 308.5,188.1 309.9,188.1 311.2,188.0 312.6,188.0 314.0,188.0 315.4,188.0 316.8,188.0 318.2,188.0 319.6,188.0 321.0,188.0 322.4,188.0 323.8,188.0 325.2,188.0 326.5,187.9 327.9,187.9 329.3,187.8 330.7,187.8 332.1,187.7 333.5,187.6 334.9,187.5 336.3,187.3 337.7,187.1 339.1,186.9 340.4,186.7 341.8,186.5 343.2,186.2 344.6,185.8 346.0,185.5 347.4,185.1 348.8,184.6 350.2,184.2 351.6,183.6 352.9,183.1 354.3,182.5 355.7,181.8 357.1,181.1 358.5,180.3 359.9,179.5 361.3,178.6 362.7,177.7 364.1,176.7 365.5,175.6 366.9,174.5 368.2,173.3 369.6,172.1 371.0,170.7 372.4,169.3 373.8,167.9 375.2,166.3 376.6,164.7 378.0,163.0 379.4,161.2 380.8,159.3 382.1,157.4 383.5,155.3 384.9,153.2 386.3,151.0 387.7,148.6 389.1,146.2 390.5,143.7 391.9,141.1 393.3,138.4 394.7,135.6 396.0,132.7 397.4,129.7 398.8,126.6 400.2,123.3 401.6,120.0" fill="none" stroke="#15803d" stroke-width="3" stroke-linejoin="round" stroke-linecap="round"/>
<text x="318.2" y="86.0" font-size="15" fill="#222" text-anchor="middle" font-weight="bold">monotone-curved</text>
<text x="318.2" y="296.0" font-size="15" fill="#6b7280" text-anchor="middle" font-weight="normal" font-family="SFMono-Regular,Menlo,monospace">f(s) = s³</text>
<text x="318.2" y="318.0" font-size="14" fill="#15803d" text-anchor="middle" font-weight="bold">→ projection</text>
<rect x="429.6" y="96.0" width="190.8" height="176.0" rx="6" fill="#fbfcfd" stroke="#e5e7eb" stroke-width="1.2"/>
<line x1="441.6" y1="256.0" x2="608.4" y2="256.0" stroke="#e5e7eb" stroke-width="1"/>
<polyline points="441.6,120.0 443.0,124.5 444.4,128.9 445.8,133.3 447.2,137.5 448.6,141.7 449.9,145.8 451.3,149.9 452.7,153.8 454.1,157.7 455.5,161.6 456.9,165.3 458.3,169.0 459.7,172.5 461.1,176.1 462.5,179.5 463.8,182.9 465.2,186.1 466.6,189.4 468.0,192.5 469.4,195.6 470.8,198.5 472.2,201.4 473.6,204.3 475.0,207.0 476.4,209.7 477.7,212.3 479.1,214.9 480.5,217.3 481.9,219.7 483.3,222.0 484.7,224.2 486.1,226.4 487.5,228.5 488.9,230.5 490.2,232.4 491.6,234.2 493.0,236.0 494.4,237.7 495.8,239.3 497.2,240.9 498.6,242.4 500.0,243.8 501.4,245.1 502.8,246.3 504.2,247.5 505.5,248.6 506.9,249.6 508.3,250.6 509.7,251.4 511.1,252.2 512.5,252.9 513.9,253.6 515.3,254.1 516.7,254.6 518.1,255.1 519.4,255.4 520.8,255.7 522.2,255.8 523.6,256.0 525.0,256.0 526.4,256.0 527.8,255.8 529.2,255.7 530.6,255.4 532.0,255.1 533.3,254.6 534.7,254.1 536.1,253.6 537.5,252.9 538.9,252.2 540.3,251.4 541.7,250.6 543.1,249.6 544.5,248.6 545.9,247.5 547.2,246.3 548.6,245.1 550.0,243.8 551.4,242.4 552.8,240.9 554.2,239.3 555.6,237.7 557.0,236.0 558.4,234.2 559.8,232.4 561.1,230.5 562.5,228.5 563.9,226.4 565.3,224.2 566.7,222.0 568.1,219.7 569.5,217.3 570.9,214.9 572.3,212.3 573.7,209.7 575.0,207.0 576.4,204.3 577.8,201.4 579.2,198.5 580.6,195.6 582.0,192.5 583.4,189.4 584.8,186.1 586.2,182.9 587.6,179.5 588.9,176.1 590.3,172.5 591.7,169.0 593.1,165.3 594.5,161.6 595.9,157.7 597.3,153.8 598.7,149.9 600.1,145.8 601.5,141.7 602.8,137.5 604.2,133.3 605.6,128.9 607.0,124.5 608.4,120.0" fill="none" stroke="#15803d" stroke-width="3" stroke-linejoin="round" stroke-linecap="round"/>
<text x="525.0" y="86.0" font-size="15" fill="#222" text-anchor="middle" font-weight="bold">smooth non-monotone</text>
<text x="525.0" y="296.0" font-size="15" fill="#6b7280" text-anchor="middle" font-weight="normal" font-family="SFMono-Regular,Menlo,monospace">f(s) = s²</text>
<text x="525.0" y="318.0" font-size="14" fill="#15803d" text-anchor="middle" font-weight="bold">→ projection</text>
<rect x="636.4" y="96.0" width="190.8" height="176.0" rx="6" fill="#fbfcfd" stroke="#e5e7eb" stroke-width="1.2"/>
<line x1="648.4" y1="256.0" x2="815.2" y2="256.0" stroke="#e5e7eb" stroke-width="1"/>
<polyline points="648.4,256.0 649.8,256.0 651.2,256.0 652.6,256.0 654.0,256.0 655.4,256.0 656.7,256.0 658.1,256.0 659.5,256.0 660.9,256.0 662.3,256.0 663.7,256.0 665.1,256.0 666.5,256.0 667.9,256.0 669.3,256.0 670.6,256.0 672.0,256.0 673.4,256.0 674.8,256.0 676.2,256.0 677.6,256.0 679.0,256.0 680.4,256.0 681.8,256.0 683.2,256.0 684.5,256.0 685.9,256.0 687.3,256.0 688.7,256.0 690.1,256.0 691.5,256.0 692.9,256.0 694.3,256.0 695.7,256.0 697.1,256.0 698.4,256.0 699.8,256.0 701.2,256.0 702.6,256.0 704.0,256.0 705.4,256.0 706.8,256.0 708.2,256.0 709.6,256.0 711.0,256.0 712.3,255.9 713.7,255.8 715.1,255.5 716.5,254.7 717.9,253.1 719.3,250.0 720.7,244.5 722.1,235.5 723.5,222.1 724.9,204.2 726.2,182.6 727.6,159.9 729.0,139.4 730.4,125.1 731.8,120.0 733.2,125.1 734.6,139.4 736.0,159.9 737.4,182.6 738.8,204.2 740.1,222.1 741.5,235.5 742.9,244.5 744.3,250.0 745.7,253.1 747.1,254.7 748.5,255.5 749.9,255.8 751.3,255.9 752.7,256.0 754.0,256.0 755.4,256.0 756.8,256.0 758.2,256.0 759.6,256.0 761.0,256.0 762.4,256.0 763.8,256.0 765.2,256.0 766.6,256.0 767.9,256.0 769.3,256.0 770.7,256.0 772.1,256.0 773.5,256.0 774.9,256.0 776.3,256.0 777.7,256.0 779.1,256.0 780.5,256.0 781.8,256.0 783.2,256.0 784.6,256.0 786.0,256.0 787.4,256.0 788.8,256.0 790.2,256.0 791.6,256.0 793.0,256.0 794.4,256.0 795.7,256.0 797.1,256.0 798.5,256.0 799.9,256.0 801.3,256.0 802.7,256.0 804.1,256.0 805.5,256.0 806.9,256.0 808.3,256.0 809.6,256.0 811.0,256.0 812.4,256.0 813.8,256.0 815.2,256.0" fill="none" stroke="#b91c1c" stroke-width="3" stroke-linejoin="round" stroke-linecap="round"/>
<text x="731.8" y="86.0" font-size="15" fill="#222" text-anchor="middle" font-weight="bold">sharp (mode)</text>
<text x="731.8" y="296.0" font-size="15" fill="#6b7280" text-anchor="middle" font-weight="normal" font-family="SFMono-Regular,Menlo,monospace">exp(−s²/2σ²)</text>
<text x="731.8" y="318.0" font-size="14" fill="#b91c1c" text-anchor="middle" font-weight="bold">→ PLE</text>
<rect x="843.2" y="96.0" width="190.8" height="176.0" rx="6" fill="#fbfcfd" stroke="#e5e7eb" stroke-width="1.2"/>
<line x1="855.2" y1="256.0" x2="1022.0" y2="256.0" stroke="#e5e7eb" stroke-width="1"/>
<polyline points="855.2,256.0 856.6,256.0 858.0,256.0 859.4,256.0 860.8,256.0 862.2,256.0 863.5,256.0 864.9,256.0 866.3,256.0 867.7,256.0 869.1,256.0 870.5,256.0 871.9,256.0 873.3,256.0 874.7,256.0 876.1,256.0 877.4,256.0 878.8,256.0 880.2,256.0 881.6,256.0 883.0,256.0 884.4,256.0 885.8,256.0 887.2,256.0 888.6,256.0 890.0,256.0 891.3,256.0 892.7,256.0 894.1,256.0 895.5,256.0 896.9,256.0 898.3,256.0 899.7,256.0 901.1,256.0 902.5,256.0 903.9,256.0 905.2,256.0 906.6,256.0 908.0,256.0 909.4,256.0 910.8,256.0 912.2,256.0 913.6,256.0 915.0,256.0 916.4,256.0 917.8,256.0 919.1,256.0 920.5,256.0 921.9,256.0 923.3,256.0 924.7,256.0 926.1,256.0 927.5,256.0 928.9,256.0 930.3,256.0 931.7,256.0 933.0,256.0 934.4,256.0 935.8,256.0 937.2,256.0 938.6,256.0 940.0,256.0 941.4,256.0 942.8,256.0 944.2,256.0 945.6,256.0 946.9,256.0 948.3,256.0 949.7,256.0 951.1,256.0 952.5,256.0 953.9,256.0 955.3,256.0 956.7,256.0 958.1,256.0 959.5,256.0 960.8,256.0 962.2,256.0 963.6,256.0 965.0,256.0 966.4,256.0 967.8,256.0 969.2,255.9 970.6,255.8 972.0,255.5 973.4,254.7 974.7,253.1 976.1,250.0 977.5,244.5 978.9,235.5 980.3,222.1 981.7,204.2 983.1,182.6 984.5,159.9 985.9,139.4 987.2,125.1 988.6,120.0 990.0,125.1 991.4,139.4 992.8,159.9 994.2,182.6 995.6,204.2 997.0,222.1 998.4,235.5 999.8,244.5 1001.2,250.0 1002.5,253.1 1003.9,254.7 1005.3,255.5 1006.7,255.8 1008.1,255.9 1009.5,256.0 1010.9,256.0 1012.3,256.0 1013.7,256.0 1015.1,256.0 1016.4,256.0 1017.8,256.0 1019.2,256.0 1020.6,256.0 1022.0,256.0" fill="none" stroke="#b91c1c" stroke-width="3" stroke-linejoin="round" stroke-linecap="round"/>
<text x="938.6" y="86.0" font-size="15" fill="#222" text-anchor="middle" font-weight="bold">sharp (off)</text>
<text x="938.6" y="296.0" font-size="15" fill="#6b7280" text-anchor="middle" font-weight="normal" font-family="SFMono-Regular,Menlo,monospace">exp(−(s−1.5)²/2σ²)</text>
<text x="938.6" y="318.0" font-size="14" fill="#b91c1c" text-anchor="middle" font-weight="bold">→ PLE</text>
<text x="525.0" y="352.0" font-size="14" fill="#6b7280" text-anchor="middle" font-weight="normal" font-style="italic">Only the sharp band concentrates risk in a narrow range of the value — the shape a fixed quantile basis resolves for free.</text>
</svg>