<svg xmlns="http://www.w3.org/2000/svg" viewBox="0 0 1040 575" font-family="Helvetica,Arial,sans-serif">
<text x="520.0" y="32.0" font-size="25" fill="#1a4a7a" text-anchor="middle" font-weight="bold">Affine-read GRU: the winning encoder crosses over by risk shape</text>
<line x1="78.0" y1="470.0" x2="1015.0" y2="470.0" stroke="#e5e7eb" stroke-width="1"/>
<text x="68.0" y="474.0" font-size="15" fill="#6b7280" text-anchor="end" font-weight="normal">0.00</text>
<line x1="78.0" y1="380.0" x2="1015.0" y2="380.0" stroke="#e5e7eb" stroke-width="1"/>
<text x="68.0" y="384.0" font-size="15" fill="#6b7280" text-anchor="end" font-weight="normal">0.15</text>
<line x1="78.0" y1="290.0" x2="1015.0" y2="290.0" stroke="#e5e7eb" stroke-width="1"/>
<text x="68.0" y="294.0" font-size="15" fill="#6b7280" text-anchor="end" font-weight="normal">0.30</text>
<line x1="78.0" y1="200.0" x2="1015.0" y2="200.0" stroke="#e5e7eb" stroke-width="1"/>
<text x="68.0" y="204.0" font-size="15" fill="#6b7280" text-anchor="end" font-weight="normal">0.45</text>
<line x1="78.0" y1="110.0" x2="1015.0" y2="110.0" stroke="#e5e7eb" stroke-width="1"/>
<text x="68.0" y="114.0" font-size="15" fill="#6b7280" text-anchor="end" font-weight="normal">0.60</text>
<line x1="78.0" y1="470.0" x2="1015.0" y2="470.0" stroke="#6b7280" stroke-width="1.5"/>
<text x="30.0" y="272.0" font-size="16" fill="#6b7280" text-anchor="middle" font-weight="normal" transform="rotate(-90 30.0 272.0)">PR-AUC (8-seed mean)</text>
<rect x="105.7" y="151.2" width="40.0" height="318.8" rx="3" fill="#1a4a7a" stroke="none" stroke-width="1.5"/>
<text x="125.7" y="144.2" font-size="13" fill="#1a4a7a" text-anchor="middle" font-weight="bold">0.53</text>
<rect x="151.7" y="196.2" width="40.0" height="273.8" rx="3" fill="#b91c1c" stroke="none" stroke-width="1.5"/>
<text x="171.7" y="189.2" font-size="13" fill="#b91c1c" text-anchor="middle" font-weight="bold">0.46</text>
<rect x="197.7" y="165.6" width="40.0" height="304.4" rx="3" fill="#15803d" stroke="none" stroke-width="1.5"/>
<text x="217.7" y="158.6" font-size="13" fill="#15803d" text-anchor="middle" font-weight="bold">0.51</text>
<line x1="99.7" y1="137.0" x2="243.7" y2="137.0" stroke="#d1d5db" stroke-width="3" stroke-dasharray="6 4"/>
<text x="171.7" y="131.0" font-size="12" fill="#9aa0a6" text-anchor="middle" font-weight="normal">oracle 0.56</text>
<text x="171.7" y="494.0" font-size="17" fill="#222" text-anchor="middle" font-weight="bold">log-lin</text>
<text x="171.7" y="517.0" font-size="15" fill="#1a4a7a" text-anchor="middle" font-weight="bold">→ log</text>
<rect x="293.1" y="278.7" width="40.0" height="191.3" rx="3" fill="#1a4a7a" stroke="none" stroke-width="1.5"/>
<text x="313.1" y="271.7" font-size="13" fill="#1a4a7a" text-anchor="middle" font-weight="bold">0.32</text>
<rect x="339.1" y="264.8" width="40.0" height="205.2" rx="3" fill="#b91c1c" stroke="none" stroke-width="1.5"/>
<text x="359.1" y="257.8" font-size="13" fill="#b91c1c" text-anchor="middle" font-weight="bold">0.34</text>
<rect x="385.1" y="218.4" width="40.0" height="251.6" rx="3" fill="#15803d" stroke="none" stroke-width="1.5"/>
<text x="405.1" y="211.4" font-size="13" fill="#15803d" text-anchor="middle" font-weight="bold">0.42</text>
<line x1="287.1" y1="105.0" x2="431.1" y2="105.0" stroke="#d1d5db" stroke-width="3" stroke-dasharray="6 4"/>
<text x="359.1" y="99.0" font-size="12" fill="#9aa0a6" text-anchor="middle" font-weight="normal">oracle 0.61</text>
<text x="359.1" y="494.0" font-size="17" fill="#222" text-anchor="middle" font-weight="bold">curved</text>
<text x="359.1" y="517.0" font-size="15" fill="#15803d" text-anchor="middle" font-weight="bold">→ projection</text>
<rect x="480.5" y="299.2" width="40.0" height="170.8" rx="3" fill="#1a4a7a" stroke="none" stroke-width="1.5"/>
<text x="500.5" y="292.2" font-size="13" fill="#1a4a7a" text-anchor="middle" font-weight="bold">0.28</text>
<rect x="526.5" y="281.4" width="40.0" height="188.6" rx="3" fill="#b91c1c" stroke="none" stroke-width="1.5"/>
<text x="546.5" y="274.4" font-size="13" fill="#b91c1c" text-anchor="middle" font-weight="bold">0.31</text>
<rect x="572.5" y="186.9" width="40.0" height="283.1" rx="3" fill="#15803d" stroke="none" stroke-width="1.5"/>
<text x="592.5" y="179.9" font-size="13" fill="#15803d" text-anchor="middle" font-weight="bold">0.47</text>
<line x1="474.5" y1="106.5" x2="618.5" y2="106.5" stroke="#d1d5db" stroke-width="3" stroke-dasharray="6 4"/>
<text x="546.5" y="100.5" font-size="12" fill="#9aa0a6" text-anchor="middle" font-weight="normal">oracle 0.61</text>
<text x="546.5" y="494.0" font-size="17" fill="#222" text-anchor="middle" font-weight="bold">smooth</text>
<text x="546.5" y="517.0" font-size="15" fill="#15803d" text-anchor="middle" font-weight="bold">→ projection</text>
<rect x="667.9" y="420.1" width="40.0" height="49.9" rx="3" fill="#1a4a7a" stroke="none" stroke-width="1.5"/>
<text x="687.9" y="413.1" font-size="13" fill="#1a4a7a" text-anchor="middle" font-weight="bold">0.08</text>
<rect x="713.9" y="212.7" width="40.0" height="257.3" rx="3" fill="#b91c1c" stroke="none" stroke-width="1.5"/>
<text x="733.9" y="205.7" font-size="13" fill="#b91c1c" text-anchor="middle" font-weight="bold">0.43</text>
<rect x="759.9" y="362.8" width="40.0" height="107.2" rx="3" fill="#15803d" stroke="none" stroke-width="1.5"/>
<text x="779.9" y="355.8" font-size="13" fill="#15803d" text-anchor="middle" font-weight="bold">0.18</text>
<line x1="661.9" y1="103.6" x2="805.9" y2="103.6" stroke="#d1d5db" stroke-width="3" stroke-dasharray="6 4"/>
<text x="733.9" y="97.6" font-size="12" fill="#9aa0a6" text-anchor="middle" font-weight="normal">oracle 0.61</text>
<text x="733.9" y="494.0" font-size="17" fill="#222" text-anchor="middle" font-weight="bold">sharp</text>
<text x="733.9" y="517.0" font-size="15" fill="#b91c1c" text-anchor="middle" font-weight="bold">→ PLE</text>
<rect x="855.3" y="386.3" width="40.0" height="83.7" rx="3" fill="#1a4a7a" stroke="none" stroke-width="1.5"/>
<text x="875.3" y="379.3" font-size="13" fill="#1a4a7a" text-anchor="middle" font-weight="bold">0.14</text>
<rect x="901.3" y="346.3" width="40.0" height="123.7" rx="3" fill="#b91c1c" stroke="none" stroke-width="1.5"/>
<text x="921.3" y="339.3" font-size="13" fill="#b91c1c" text-anchor="middle" font-weight="bold">0.21</text>
<rect x="947.3" y="363.9" width="40.0" height="106.1" rx="3" fill="#15803d" stroke="none" stroke-width="1.5"/>
<text x="967.3" y="356.9" font-size="13" fill="#15803d" text-anchor="middle" font-weight="bold">0.18</text>
<line x1="849.3" y1="82.0" x2="993.3" y2="82.0" stroke="#d1d5db" stroke-width="3" stroke-dasharray="6 4"/>
<text x="921.3" y="76.0" font-size="12" fill="#9aa0a6" text-anchor="middle" font-weight="normal">oracle 0.65</text>
<text x="921.3" y="494.0" font-size="17" fill="#222" text-anchor="middle" font-weight="bold">sharp-off</text>
<text x="921.3" y="517.0" font-size="15" fill="#b91c1c" text-anchor="middle" font-weight="bold">→ PLE</text>
<rect x="80.0" y="66.0" width="15.0" height="15.0" rx="2" fill="#1a4a7a" stroke="none" stroke-width="1.5"/>
<text x="101.0" y="78.0" font-size="14" fill="#222" text-anchor="start" font-weight="normal">log (reference scalar)</text>
<rect x="266.8" y="66.0" width="15.0" height="15.0" rx="2" fill="#b91c1c" stroke="none" stroke-width="1.5"/>
<text x="287.8" y="78.0" font-size="14" fill="#222" text-anchor="start" font-weight="normal">ple (fixed quantile basis)</text>
<rect x="483.2" y="66.0" width="15.0" height="15.0" rx="2" fill="#15803d" stroke="none" stroke-width="1.5"/>
<text x="504.2" y="78.0" font-size="14" fill="#222" text-anchor="start" font-weight="normal">projection (learned per-feature)</text>
<text x="520.0" y="563.0" font-size="14" fill="#6b7280" text-anchor="middle" font-weight="normal" font-style="italic">Fixed PLE towers where risk is sharp; learned projection leads where it is smooth/curved; log wins only log-linear.   Source: ConsolidatedFlow/1784135301155957, K=6.</text>
</svg>