<svg xmlns="http://www.w3.org/2000/svg" viewBox="0 0 1040 560" font-family="Helvetica,Arial,sans-serif">
<text x="520.0" y="32.0" font-size="25" fill="#1a4a7a" text-anchor="middle" font-weight="bold">Read the deployment gap, not the estimand</text>
<text x="520.0" y="60.0" font-size="17" fill="#444" text-anchor="middle" font-weight="normal">raw_gap (coloured CI) is the deployment quantity · dc_lift (blue) inflates it by the deficit add-back</text>
<line x1="316.2" y1="90.0" x2="316.2" y2="476.0" stroke="#eceef1" stroke-width="1"/>
<text x="316.2" y="496.0" font-size="14" fill="#6b7280" text-anchor="middle" font-weight="normal">-0.05</text>
<line x1="384.7" y1="90.0" x2="384.7" y2="476.0" stroke="#eceef1" stroke-width="1"/>
<text x="384.7" y="496.0" font-size="14" fill="#6b7280" text-anchor="middle" font-weight="normal">0</text>
<line x1="521.9" y1="90.0" x2="521.9" y2="476.0" stroke="#eceef1" stroke-width="1"/>
<text x="521.9" y="496.0" font-size="14" fill="#6b7280" text-anchor="middle" font-weight="normal">+0.10</text>
<line x1="659.1" y1="90.0" x2="659.1" y2="476.0" stroke="#eceef1" stroke-width="1"/>
<text x="659.1" y="496.0" font-size="14" fill="#6b7280" text-anchor="middle" font-weight="normal">+0.20</text>
<line x1="796.2" y1="90.0" x2="796.2" y2="476.0" stroke="#eceef1" stroke-width="1"/>
<text x="796.2" y="496.0" font-size="14" fill="#6b7280" text-anchor="middle" font-weight="normal">+0.30</text>
<line x1="933.4" y1="90.0" x2="933.4" y2="476.0" stroke="#eceef1" stroke-width="1"/>
<text x="933.4" y="496.0" font-size="14" fill="#6b7280" text-anchor="middle" font-weight="normal">+0.40</text>
<line x1="384.7" y1="100.0" x2="384.7" y2="476.0" stroke="#111" stroke-width="1.6"/>
<text x="638.5" y="520.0" font-size="15" fill="#6b7280" text-anchor="middle" font-weight="normal">lift over log (PR-AUC)</text>
<text x="259.0" y="132.2" font-size="16" fill="#b91c1c" text-anchor="end" font-weight="bold">raw · sharp</text>
<line x1="386.4" y1="127.2" x2="606.8" y2="127.2" stroke="#c9ccd1" stroke-width="1.2" stroke-dasharray="3 3"/>
<line x1="374.0" y1="127.2" x2="398.7" y2="127.2" stroke="#6b7280" stroke-width="5"/>
<circle cx="386.4" cy="127.2" r="6.0" fill="#6b7280" stroke="none" stroke-width="1.0"/>
<circle cx="606.8" cy="127.2" r="6.0" fill="#1a4a7a" stroke="#fff" stroke-width="1.5"/>
<text x="410.7" y="121.2" font-size="13" fill="#6b7280" text-anchor="start" font-weight="normal">raw +0.00</text>
<text x="618.8" y="142.2" font-size="13" fill="#1a4a7a" text-anchor="start" font-weight="normal">dc +0.16</text>
<text x="259.0" y="194.5" font-size="16" fill="#222" text-anchor="end" font-weight="normal">ple · curved</text>
<line x1="416.6" y1="189.5" x2="519.6" y2="189.5" stroke="#c9ccd1" stroke-width="1.2" stroke-dasharray="3 3"/>
<line x1="379.0" y1="189.5" x2="454.1" y2="189.5" stroke="#6b7280" stroke-width="5"/>
<circle cx="416.6" cy="189.5" r="6.0" fill="#6b7280" stroke="none" stroke-width="1.0"/>
<circle cx="519.6" cy="189.5" r="6.0" fill="#1a4a7a" stroke="#fff" stroke-width="1.5"/>
<text x="466.1" y="183.5" font-size="13" fill="#6b7280" text-anchor="start" font-weight="normal">raw +0.02</text>
<text x="531.6" y="204.5" font-size="13" fill="#1a4a7a" text-anchor="start" font-weight="normal">dc +0.10</text>
<text x="259.0" y="256.8" font-size="16" fill="#222" text-anchor="end" font-weight="normal">ple · smooth</text>
<line x1="425.6" y1="251.8" x2="528.6" y2="251.8" stroke="#c9ccd1" stroke-width="1.2" stroke-dasharray="3 3"/>
<line x1="309.3" y1="251.8" x2="542.1" y2="251.8" stroke="#6b7280" stroke-width="5"/>
<circle cx="425.6" cy="251.8" r="6.0" fill="#6b7280" stroke="none" stroke-width="1.0"/>
<circle cx="528.6" cy="251.8" r="6.0" fill="#1a4a7a" stroke="#fff" stroke-width="1.5"/>
<text x="554.1" y="245.8" font-size="13" fill="#6b7280" text-anchor="start" font-weight="normal">raw +0.03</text>
<text x="540.6" y="266.8" font-size="13" fill="#1a4a7a" text-anchor="start" font-weight="normal">dc +0.10</text>
<text x="259.0" y="319.2" font-size="16" fill="#222" text-anchor="end" font-weight="normal">projection · curved</text>
<line x1="522.7" y1="314.2" x2="555.6" y2="314.2" stroke="#c9ccd1" stroke-width="1.2" stroke-dasharray="3 3"/>
<line x1="484.5" y1="314.2" x2="561.1" y2="314.2" stroke="#15803d" stroke-width="5"/>
<circle cx="522.7" cy="314.2" r="6.0" fill="#15803d" stroke="none" stroke-width="1.0"/>
<circle cx="555.6" cy="314.2" r="6.0" fill="#1a4a7a" stroke="#fff" stroke-width="1.5"/>
<text x="573.1" y="308.2" font-size="13" fill="#15803d" text-anchor="start" font-weight="normal">raw +0.10</text>
<text x="567.6" y="329.2" font-size="13" fill="#1a4a7a" text-anchor="start" font-weight="normal">dc +0.12</text>
<text x="259.0" y="381.5" font-size="16" fill="#222" text-anchor="end" font-weight="normal">projection · smooth</text>
<line x1="641.8" y1="376.5" x2="674.6" y2="376.5" stroke="#c9ccd1" stroke-width="1.2" stroke-dasharray="3 3"/>
<line x1="548.5" y1="376.5" x2="735.1" y2="376.5" stroke="#15803d" stroke-width="5"/>
<circle cx="641.8" cy="376.5" r="6.0" fill="#15803d" stroke="none" stroke-width="1.0"/>
<circle cx="674.6" cy="376.5" r="6.0" fill="#1a4a7a" stroke="#fff" stroke-width="1.5"/>
<text x="747.1" y="370.5" font-size="13" fill="#15803d" text-anchor="start" font-weight="normal">raw +0.19</text>
<text x="686.6" y="391.5" font-size="13" fill="#1a4a7a" text-anchor="start" font-weight="normal">dc +0.21</text>
<text x="259.0" y="443.8" font-size="16" fill="#222" text-anchor="end" font-weight="normal">ple · sharp</text>
<line x1="858.9" y1="438.8" x2="961.9" y2="438.8" stroke="#c9ccd1" stroke-width="1.2" stroke-dasharray="3 3"/>
<line x1="813.0" y1="438.8" x2="904.9" y2="438.8" stroke="#15803d" stroke-width="5"/>
<circle cx="858.9" cy="438.8" r="6.0" fill="#15803d" stroke="none" stroke-width="1.0"/>
<circle cx="961.9" cy="438.8" r="6.0" fill="#1a4a7a" stroke="#fff" stroke-width="1.5"/>
<text x="916.9" y="432.8" font-size="13" fill="#15803d" text-anchor="start" font-weight="normal">raw +0.35</text>
<text x="973.9" y="453.8" font-size="13" fill="#1a4a7a" text-anchor="start" font-weight="normal">dc +0.42</text>
<text x="520.0" y="540.0" font-size="14" fill="#6b7280" text-anchor="middle" font-weight="normal" font-style="italic">'raw · sharp': dc_lift +0.16 (Holm-sig) on a raw_gap of +0.00 — pure add-back, zero deployment value.   Source: ConsolidatedFlow/1784135301155957.</text>
<circle cx="281.0" cy="76.0" r="6.0" fill="#15803d" stroke="none" stroke-width="1.0"/>
<text x="293.0" y="81.0" font-size="13" fill="#222" text-anchor="start" font-weight="normal">raw_gap, CI excludes 0</text>
<circle cx="515.0" cy="76.0" r="6.0" fill="#6b7280" stroke="none" stroke-width="1.0"/>
<text x="527.0" y="81.0" font-size="13" fill="#222" text-anchor="start" font-weight="normal">raw_gap, n.s.</text>
<circle cx="675.0" cy="76.0" r="6.0" fill="#1a4a7a" stroke="#fff" stroke-width="1.5"/>
<text x="687.0" y="81.0" font-size="13" fill="#222" text-anchor="start" font-weight="normal">dc_lift (structural)</text>
</svg>