<svg xmlns="http://www.w3.org/2000/svg" viewBox="0 0 1040 570" font-family="Helvetica,Arial,sans-serif">
<text x="520.0" y="34.0" font-size="25" fill="#1a4a7a" text-anchor="middle" font-weight="bold">Free-nonlinearity MLP: PLE is redundant — except on the sharp band</text>
<line x1="78.0" y1="478.0" x2="1015.0" y2="478.0" stroke="#e5e7eb" stroke-width="1"/>
<text x="68.0" y="482.0" font-size="15" fill="#6b7280" text-anchor="end" font-weight="normal">0.00</text>
<line x1="78.0" y1="385.3" x2="1015.0" y2="385.3" stroke="#e5e7eb" stroke-width="1"/>
<text x="68.0" y="389.3" font-size="15" fill="#6b7280" text-anchor="end" font-weight="normal">0.15</text>
<line x1="78.0" y1="292.5" x2="1015.0" y2="292.5" stroke="#e5e7eb" stroke-width="1"/>
<text x="68.0" y="296.5" font-size="15" fill="#6b7280" text-anchor="end" font-weight="normal">0.30</text>
<line x1="78.0" y1="199.8" x2="1015.0" y2="199.8" stroke="#e5e7eb" stroke-width="1"/>
<text x="68.0" y="203.8" font-size="15" fill="#6b7280" text-anchor="end" font-weight="normal">0.45</text>
<line x1="78.0" y1="107.1" x2="1015.0" y2="107.1" stroke="#e5e7eb" stroke-width="1"/>
<text x="68.0" y="111.1" font-size="15" fill="#6b7280" text-anchor="end" font-weight="normal">0.60</text>
<line x1="78.0" y1="478.0" x2="1015.0" y2="478.0" stroke="#6b7280" stroke-width="1.5"/>
<text x="30.0" y="274.0" font-size="16" fill="#6b7280" text-anchor="middle" font-weight="normal" transform="rotate(-90 30.0 274.0)">PR-AUC (8-seed mean)</text>
<rect x="103.7" y="203.8" width="62.0" height="274.2" rx="3" fill="#1a4a7a" stroke="none" stroke-width="1.5"/>
<rect x="177.7" y="203.1" width="62.0" height="274.9" rx="3" fill="#b91c1c" stroke="none" stroke-width="1.5"/>
<text x="134.7" y="195.8" font-size="15" fill="#1a4a7a" text-anchor="middle" font-weight="bold">0.44</text>
<text x="208.7" y="195.1" font-size="15" fill="#b91c1c" text-anchor="middle" font-weight="bold">0.44</text>
<text x="171.7" y="502.0" font-size="17" fill="#222" text-anchor="middle" font-weight="bold">log-lin</text>
<text x="171.7" y="524.0" font-size="15" fill="#6b7280" text-anchor="middle" font-weight="normal" font-style="italic">redundant</text>
<rect x="291.1" y="287.4" width="62.0" height="190.6" rx="3" fill="#1a4a7a" stroke="none" stroke-width="1.5"/>
<rect x="365.1" y="231.8" width="62.0" height="246.2" rx="3" fill="#b91c1c" stroke="none" stroke-width="1.5"/>
<text x="322.1" y="279.4" font-size="15" fill="#1a4a7a" text-anchor="middle" font-weight="bold">0.31</text>
<text x="396.1" y="223.8" font-size="15" fill="#b91c1c" text-anchor="middle" font-weight="bold">0.40</text>
<text x="359.1" y="502.0" font-size="17" fill="#222" text-anchor="middle" font-weight="bold">curved</text>
<text x="359.1" y="524.0" font-size="15" fill="#6b7280" text-anchor="middle" font-weight="normal" font-style="italic">~redundant</text>
<rect x="478.5" y="241.7" width="62.0" height="236.3" rx="3" fill="#1a4a7a" stroke="none" stroke-width="1.5"/>
<rect x="552.5" y="288.9" width="62.0" height="189.1" rx="3" fill="#b91c1c" stroke="none" stroke-width="1.5"/>
<text x="509.5" y="233.7" font-size="15" fill="#1a4a7a" text-anchor="middle" font-weight="bold">0.38</text>
<text x="583.5" y="280.9" font-size="15" fill="#b91c1c" text-anchor="middle" font-weight="bold">0.31</text>
<text x="546.5" y="502.0" font-size="17" fill="#222" text-anchor="middle" font-weight="bold">smooth</text>
<text x="546.5" y="524.0" font-size="15" fill="#b91c1c" text-anchor="middle" font-weight="bold" font-style="italic">PLE hurts</text>
<rect x="665.9" y="396.7" width="62.0" height="81.3" rx="3" fill="#1a4a7a" stroke="none" stroke-width="1.5"/>
<rect x="739.9" y="157.8" width="62.0" height="320.2" rx="3" fill="#b91c1c" stroke="none" stroke-width="1.5"/>
<text x="696.9" y="388.7" font-size="15" fill="#1a4a7a" text-anchor="middle" font-weight="bold">0.13</text>
<text x="770.9" y="149.8" font-size="15" fill="#b91c1c" text-anchor="middle" font-weight="bold">0.52</text>
<text x="733.9" y="502.0" font-size="17" fill="#222" text-anchor="middle" font-weight="bold">sharp</text>
<text x="733.9" y="524.0" font-size="15" fill="#15803d" text-anchor="middle" font-weight="bold" font-style="italic">DECISIVE</text>
<rect x="853.3" y="372.5" width="62.0" height="105.5" rx="3" fill="#1a4a7a" stroke="none" stroke-width="1.5"/>
<rect x="927.3" y="346.2" width="62.0" height="131.8" rx="3" fill="#b91c1c" stroke="none" stroke-width="1.5"/>
<text x="884.3" y="364.5" font-size="15" fill="#1a4a7a" text-anchor="middle" font-weight="bold">0.17</text>
<text x="958.3" y="338.2" font-size="15" fill="#b91c1c" text-anchor="middle" font-weight="bold">0.21</text>
<text x="921.3" y="502.0" font-size="17" fill="#222" text-anchor="middle" font-weight="bold">sharp-off</text>
<text x="921.3" y="524.0" font-size="15" fill="#6b7280" text-anchor="middle" font-weight="normal" font-style="italic">small</text>
<line x1="691.9" y1="169.8" x2="691.9" y2="390.7" stroke="#15803d" stroke-width="2.5"/>
<polygon points="691.9,390.7 686.9,381.7 696.9,381.7" fill="#15803d"/>
<text x="829.9" y="277.3" font-size="22" fill="#15803d" text-anchor="middle" font-weight="bold">+0.39</text>
<rect x="82.0" y="64.0" width="16.0" height="16.0" rx="2" fill="#1a4a7a" stroke="none" stroke-width="1.5"/>
<text x="104.0" y="77.0" font-size="15" fill="#222" text-anchor="start" font-weight="normal">mlp_log (reference)</text>
<rect x="288.0" y="64.0" width="16.0" height="16.0" rx="2" fill="#b91c1c" stroke="none" stroke-width="1.5"/>
<text x="310.0" y="77.0" font-size="15" fill="#222" text-anchor="start" font-weight="normal">mlp_ple (fixed basis)</text>
<text x="520.0" y="558.0" font-size="14" fill="#6b7280" text-anchor="middle" font-weight="normal" font-style="italic">A free per-step nonlinearity does NOT make encoding redundant — localization does.   Source: ConsolidatedFlow/1784135301155957, mlp arms, K=6.</text>
</svg>