<svg xmlns="http://www.w3.org/2000/svg" viewBox="0 0 1050 452" font-family="Helvetica,Arial,sans-serif">
<text x="525.0" y="36.0" font-size="26" fill="#1a4a7a" text-anchor="middle" font-weight="bold">Two ways a model reads a per-step numeric feature</text>
<rect x="26.0" y="84.0" width="486.0" height="250.0" rx="12" fill="#eaf1f8" stroke="#1a4a7a" stroke-width="2"/>
<text x="269.0" y="118.0" font-size="21" fill="#1a4a7a" text-anchor="middle" font-weight="bold">Affine-read  ·  GRU, static logistic head</text>
<rect x="46.0" y="170.0" width="92.0" height="68.0" rx="8" fill="#fff" stroke="#6b7280" stroke-width="1.5"/>
<text x="92.0" y="200.0" font-size="15" fill="#222" text-anchor="middle" font-weight="bold" font-family="SFMono-Regular,Menlo,monospace">x_t</text>
<text x="92.0" y="222.0" font-size="12" fill="#6b7280" text-anchor="middle" font-weight="normal">value</text>
<line x1="142.0" y1="204.0" x2="160.0" y2="204.0" stroke="#6b7280" stroke-width="2"/>
<polygon points="160.0,204.0 151.0,208.9 151.0,199.1" fill="#6b7280"/>
<rect x="164.0" y="170.0" width="92.0" height="68.0" rx="8" fill="#fff" stroke="#6b7280" stroke-width="1.5"/>
<text x="210.0" y="200.0" font-size="15" fill="#222" text-anchor="middle" font-weight="bold" font-family="SFMono-Regular,Menlo,monospace">e(x_t)</text>
<text x="210.0" y="222.0" font-size="12" fill="#6b7280" text-anchor="middle" font-weight="normal">encode</text>
<line x1="260.0" y1="204.0" x2="278.0" y2="204.0" stroke="#6b7280" stroke-width="2"/>
<polygon points="278.0,204.0 269.0,208.9 269.0,199.1" fill="#6b7280"/>
<rect x="282.0" y="170.0" width="92.0" height="68.0" rx="8" fill="#fff" stroke="#6b7280" stroke-width="1.5"/>
<text x="328.0" y="200.0" font-size="15" fill="#222" text-anchor="middle" font-weight="bold" font-family="SFMono-Regular,Menlo,monospace">W · e</text>
<text x="328.0" y="222.0" font-size="12" fill="#6b7280" text-anchor="middle" font-weight="normal">linear</text>
<line x1="378.0" y1="204.0" x2="396.0" y2="204.0" stroke="#6b7280" stroke-width="2"/>
<polygon points="396.0,204.0 387.0,208.9 387.0,199.1" fill="#6b7280"/>
<rect x="400.0" y="170.0" width="92.0" height="68.0" rx="8" fill="#fff" stroke="#6b7280" stroke-width="1.5"/>
<text x="446.0" y="200.0" font-size="15" fill="#222" text-anchor="middle" font-weight="bold" font-family="SFMono-Regular,Menlo,monospace">σ / tanh</text>
<text x="446.0" y="222.0" font-size="12" fill="#6b7280" text-anchor="middle" font-weight="normal">FIXED gate</text>
<text x="269.0" y="312.0" font-size="14" fill="#1a4a7a" text-anchor="middle" font-weight="bold">per-step class = span(e): only shapes the basis spans</text>
<rect x="538.0" y="84.0" width="486.0" height="250.0" rx="12" fill="#e4f0e6" stroke="#15803d" stroke-width="2"/>
<text x="781.0" y="118.0" font-size="21" fill="#15803d" text-anchor="middle" font-weight="bold">Free-nonlinearity  ·  per-step MLP</text>
<rect x="558.0" y="170.0" width="92.0" height="68.0" rx="8" fill="#fff" stroke="#6b7280" stroke-width="1.5"/>
<text x="604.0" y="200.0" font-size="15" fill="#222" text-anchor="middle" font-weight="bold" font-family="SFMono-Regular,Menlo,monospace">x_t</text>
<text x="604.0" y="222.0" font-size="12" fill="#6b7280" text-anchor="middle" font-weight="normal">value</text>
<line x1="654.0" y1="204.0" x2="672.0" y2="204.0" stroke="#6b7280" stroke-width="2"/>
<polygon points="672.0,204.0 663.0,208.9 663.0,199.1" fill="#6b7280"/>
<rect x="676.0" y="170.0" width="92.0" height="68.0" rx="8" fill="#fff" stroke="#6b7280" stroke-width="1.5"/>
<text x="722.0" y="200.0" font-size="15" fill="#222" text-anchor="middle" font-weight="bold" font-family="SFMono-Regular,Menlo,monospace">Linear</text>
<text x="722.0" y="222.0" font-size="12" fill="#6b7280" text-anchor="middle" font-weight="normal">→ReLU</text>
<line x1="772.0" y1="204.0" x2="790.0" y2="204.0" stroke="#6b7280" stroke-width="2"/>
<polygon points="790.0,204.0 781.0,208.9 781.0,199.1" fill="#6b7280"/>
<rect x="794.0" y="170.0" width="92.0" height="68.0" rx="8" fill="#fff" stroke="#6b7280" stroke-width="1.5"/>
<text x="840.0" y="200.0" font-size="15" fill="#222" text-anchor="middle" font-weight="bold" font-family="SFMono-Regular,Menlo,monospace">Linear</text>
<text x="840.0" y="222.0" font-size="12" fill="#6b7280" text-anchor="middle" font-weight="normal">width 64</text>
<line x1="890.0" y1="204.0" x2="908.0" y2="204.0" stroke="#6b7280" stroke-width="2"/>
<polygon points="908.0,204.0 899.0,208.9 899.0,199.1" fill="#6b7280"/>
<rect x="912.0" y="170.0" width="92.0" height="68.0" rx="8" fill="#fff" stroke="#6b7280" stroke-width="1.5"/>
<text x="958.0" y="200.0" font-size="15" fill="#222" text-anchor="middle" font-weight="bold" font-family="SFMono-Regular,Menlo,monospace">f(x_t)</text>
<text x="958.0" y="222.0" font-size="12" fill="#6b7280" text-anchor="middle" font-weight="normal">ANY shape</text>
<text x="781.0" y="312.0" font-size="14" fill="#15803d" text-anchor="middle" font-weight="bold">represents any 1-D shape — if SGD can find it</text>
<text x="525.0" y="422.0" font-size="17" fill="#d97706" text-anchor="middle" font-weight="bold">The old account: a basis only helps the affine-read model. The catch it missed: 'can represent' ≠ 'can find'.</text>
<text x="525.0" y="444.0" font-size="13" fill="#6b7280" text-anchor="middle" font-weight="normal" font-style="italic">Source: flow.py _GRU (affine input) vs the per-step MLP arm.</text>
</svg>