<svg xmlns="http://www.w3.org/2000/svg" viewBox="0 0 1050 452" font-family="Helvetica,Arial,sans-serif">
<text x="525.0" y="36.0" font-size="26" fill="#1a4a7a" text-anchor="middle" font-weight="bold">One controlled synthetic flow, fully crossed</text>
<rect x="30.0" y="78.0" width="300.0" height="52.0" rx="8" fill="#eaf1f8" stroke="#1a4a7a" stroke-width="1.5"/>
<text x="44.0" y="100.0" font-size="16" fill="#1a4a7a" text-anchor="start" font-weight="bold">3 architectures</text>
<text x="44.0" y="120.0" font-size="13" fill="#333" text-anchor="start" font-weight="normal" font-family="SFMono-Regular,Menlo,monospace">static · GRU · MLP</text>
<line x1="336.0" y1="104.0" x2="384.0" y2="104.0" stroke="#6b7280" stroke-width="2"/>
<polygon points="384.0,104.0 375.0,109.0 375.0,99.0" fill="#6b7280"/>
<rect x="30.0" y="144.0" width="300.0" height="52.0" rx="8" fill="#eaf1f8" stroke="#1a4a7a" stroke-width="1.5"/>
<text x="44.0" y="166.0" font-size="16" fill="#1a4a7a" text-anchor="start" font-weight="bold">5 risk shapes</text>
<text x="44.0" y="186.0" font-size="13" fill="#333" text-anchor="start" font-weight="normal" font-family="SFMono-Regular,Menlo,monospace">log-lin · curved · smooth · 2 sharp</text>
<line x1="336.0" y1="170.0" x2="384.0" y2="170.0" stroke="#6b7280" stroke-width="2"/>
<polygon points="384.0,170.0 375.0,174.9 375.0,165.1" fill="#6b7280"/>
<rect x="30.0" y="210.0" width="300.0" height="52.0" rx="8" fill="#eaf1f8" stroke="#1a4a7a" stroke-width="1.5"/>
<text x="44.0" y="232.0" font-size="16" fill="#1a4a7a" text-anchor="start" font-weight="bold">5 encoders</text>
<text x="44.0" y="252.0" font-size="13" fill="#333" text-anchor="start" font-weight="normal" font-family="SFMono-Regular,Menlo,monospace">raw · log · ple · projection · dense</text>
<line x1="336.0" y1="236.0" x2="384.0" y2="236.0" stroke="#6b7280" stroke-width="2"/>
<polygon points="384.0,236.0 375.0,240.9 375.0,231.1" fill="#6b7280"/>
<rect x="30.0" y="276.0" width="300.0" height="52.0" rx="8" fill="#eaf1f8" stroke="#1a4a7a" stroke-width="1.5"/>
<text x="44.0" y="298.0" font-size="16" fill="#1a4a7a" text-anchor="start" font-weight="bold">multiplicity K</text>
<text x="44.0" y="318.0" font-size="13" fill="#333" text-anchor="start" font-weight="normal" font-family="SFMono-Regular,Menlo,monospace">K ∈ {1, 6}</text>
<line x1="336.0" y1="302.0" x2="384.0" y2="302.0" stroke="#6b7280" stroke-width="2"/>
<polygon points="384.0,302.0 375.0,306.9 375.0,297.1" fill="#6b7280"/>
<rect x="30.0" y="342.0" width="300.0" height="52.0" rx="8" fill="#eaf1f8" stroke="#1a4a7a" stroke-width="1.5"/>
<text x="44.0" y="364.0" font-size="16" fill="#1a4a7a" text-anchor="start" font-weight="bold">8 seeds</text>
<text x="44.0" y="384.0" font-size="13" fill="#333" text-anchor="start" font-weight="normal" font-family="SFMono-Regular,Menlo,monospace">data draw + init, re-trained</text>
<line x1="336.0" y1="368.0" x2="384.0" y2="368.0" stroke="#6b7280" stroke-width="2"/>
<polygon points="384.0,368.0 375.0,372.9 375.0,363.1" fill="#6b7280"/>
<rect x="390.0" y="150.0" width="226.0" height="150.0" rx="12" fill="#fff" stroke="#111" stroke-width="2"/>
<text x="503.0" y="196.0" font-size="19" fill="#111" text-anchor="middle" font-weight="bold" font-family="SFMono-Regular,Menlo,monospace">ConsolidatedFlow</text>
<text x="503.0" y="224.0" font-size="14" fill="#6b7280" text-anchor="middle" font-weight="normal">temperature-calibrated</text>
<text x="503.0" y="246.0" font-size="14" fill="#6b7280" text-anchor="middle" font-weight="normal">seed-paired 95% CI</text>
<text x="503.0" y="268.0" font-size="14" fill="#6b7280" text-anchor="middle" font-weight="normal">Holm across the family</text>
<line x1="622.0" y1="225.0" x2="670.0" y2="225.0" stroke="#6b7280" stroke-width="2"/>
<polygon points="670.0,225.0 661.0,229.9 661.0,220.1" fill="#6b7280"/>
<rect x="676.0" y="92.0" width="344.0" height="60.0" rx="8" fill="#e4f0e6" stroke="#15803d" stroke-width="1.5"/>
<text x="848.0" y="116.0" font-size="16" fill="#15803d" text-anchor="middle" font-weight="bold">Metric: PR-AUC</text>
<text x="848.0" y="138.0" font-size="13" fill="#333" text-anchor="middle" font-weight="normal">raw_gap (deploy) + dc_lift</text>
<rect x="676.0" y="166.0" width="344.0" height="78.0" rx="8" fill="#fde8cc" stroke="#d97706" stroke-width="1.5"/>
<text x="848.0" y="190.0" font-size="15" fill="#d97706" text-anchor="middle" font-weight="bold">Two positive controls</text>
<text x="848.0" y="210.0" font-size="13" fill="#333" text-anchor="middle" font-weight="normal">PLE must detect sharp in the</text>
<text x="848.0" y="226.0" font-size="13" fill="#333" text-anchor="middle" font-weight="normal">static path AND the GRU (hard-halt)</text>
<rect x="676.0" y="258.0" width="344.0" height="52.0" rx="8" fill="#f3f4f6" stroke="#6b7280" stroke-width="1.5"/>
<text x="848.0" y="280.0" font-size="15" fill="#6b7280" text-anchor="middle" font-weight="bold">Negative control</text>
<text x="848.0" y="300.0" font-size="13" fill="#333" text-anchor="middle" font-weight="normal">log_linear: no arm beats log</text>
<text x="525.0" y="412.0" font-size="17" fill="#222" text-anchor="middle" font-weight="bold">Same signal held fixed across architectures — so what varies is the model and the shape, not the task.</text>
<text x="525.0" y="438.0" font-size="13" fill="#6b7280" text-anchor="middle" font-weight="normal" font-style="italic">Cross-architecture is not a single-variable manipulation; the within-model controls (GRU projection arm, MLP sharp) carry the cleanest weight.</text>
</svg>